<svg width="21" height="21" viewBox="0 0 21 21" fill="none" xmlns="http://www.w3.org/2000/svg">
<g clip-path="url(#clip0)">
<path d="M3.71875 1.69263e-06H17.2812C17.7697 -0.000470511 18.2535 0.0978619 18.7049 0.289371C19.1563 0.480881 19.5664 0.761807 19.9118 1.11607C20.2572 1.47034 20.5311 1.89099 20.7179 2.35395C20.9046 2.81691 21.0005 3.3131 21 3.8141V17.1859C21.0005 17.6869 20.9046 18.1831 20.7179 18.646C20.5311 19.109 20.2572 19.5297 19.9118 19.8839C19.5664 20.2382 19.1563 20.5191 18.7049 20.7106C18.2535 20.9021 17.7697 21.0005 17.2812 21H3.71875C3.23027 21.0005 2.74649 20.9021 2.2951 20.7106C1.84372 20.5191 1.43358 20.2382 1.08817 19.8839C0.742762 19.5297 0.468858 19.109 0.282137 18.646C0.0954153 18.1831 -0.000458748 17.6869 1.65032e-06 17.1859V3.8141C-0.000458748 3.3131 0.0954153 2.81691 0.282137 2.35395C0.468858 1.89099 0.742762 1.47034 1.08817 1.11607C1.43358 0.761807 1.84372 0.480881 2.2951 0.289371C2.74649 0.0978619 3.23027 -0.000470511 3.71875 1.69263e-06Z" fill="#00005B"/>
<path d="M8.43499 12.5641H5.17999L4.51499 14.6821C4.50755 14.7205 4.48638 14.7547 4.45562 14.778C4.42486 14.8012 4.38674 14.8118 4.34874 14.8077H2.70374C2.60749 14.8077 2.58124 14.7539 2.60749 14.6462L5.42499 6.36284C5.45124 6.2731 5.47749 6.19233 5.51249 6.08464C5.5477 5.8923 5.56528 5.697 5.56499 5.50131C5.56236 5.47883 5.56812 5.45617 5.5811 5.43786C5.59408 5.41955 5.61333 5.40695 5.63499 5.40259H7.90124C7.96249 5.40259 8.00623 5.42951 8.01499 5.47438L11.2087 14.6731C11.235 14.7718 11.2087 14.8167 11.1212 14.8167H9.29248C9.26156 14.8197 9.23057 14.8115 9.20496 14.7935C9.17936 14.7754 9.16078 14.7487 9.15248 14.718L8.43499 12.5641ZM5.68749 10.7782H7.90999C7.85749 10.5898 7.78749 10.3654 7.70873 10.1321C7.62998 9.89874 7.55124 9.62951 7.47249 9.36028C7.39374 9.09105 7.30624 8.81284 7.21874 8.53464C7.13124 8.25643 7.05249 7.99618 6.98249 7.73592C6.91249 7.47566 6.85124 7.25131 6.78999 7.03592H6.77249C6.69385 7.42706 6.59453 7.81353 6.47499 8.19361C6.34374 8.62438 6.21249 9.0731 6.07249 9.52182C5.95874 9.97951 5.81874 10.4013 5.68749 10.7782Z" fill="#9999FF"/>
<path d="M16.3975 11.7385H13.6237C13.6568 12.0217 13.7494 12.2942 13.895 12.5372C14.0496 12.7791 14.2724 12.967 14.5337 13.0757C14.8874 13.2308 15.2691 13.3073 15.6537 13.3001C15.9593 13.2943 16.2638 13.2613 16.5637 13.2013C16.8306 13.1655 17.0921 13.0962 17.3425 12.9949C17.3862 12.959 17.4125 12.977 17.4125 13.0667V14.4398C17.4109 14.4763 17.4051 14.5125 17.395 14.5475C17.3792 14.5727 17.3583 14.5941 17.3337 14.6103C17.0539 14.7364 16.76 14.8268 16.4587 14.8796C16.0494 14.9603 15.6329 14.9964 15.2162 14.9872C14.5512 14.9872 13.9912 14.8796 13.5362 14.6731C13.1081 14.4825 12.7302 14.1903 12.4337 13.8206C12.1567 13.4748 11.9513 13.0748 11.83 12.6449C11.5736 11.7496 11.5858 10.7959 11.865 9.90776C12.0045 9.45842 12.2273 9.04095 12.5212 8.67827C12.8106 8.31965 13.1716 8.02891 13.58 7.82571C13.9912 7.6193 14.4812 7.5475 15.0412 7.5475C15.5078 7.5364 15.971 7.63141 16.3975 7.82571C16.7559 7.9851 17.0713 8.23149 17.3162 8.54366C17.5488 8.85017 17.7266 9.19656 17.8412 9.56673C17.9525 9.92044 18.0086 10.2899 18.0075 10.6616C18.0075 10.877 17.9987 11.0655 17.99 11.236C17.9812 11.4065 17.9637 11.5321 17.955 11.6129C17.9511 11.644 17.9368 11.6727 17.9144 11.694C17.892 11.7153 17.863 11.7279 17.8325 11.7296C17.78 11.7296 17.6837 11.7385 17.5437 11.7475C17.3753 11.7671 17.2058 11.7761 17.0362 11.7744C16.835 11.7744 16.625 11.7385 16.3975 11.7385ZM13.6237 10.4283H15.47C15.6975 10.4283 15.8637 10.4283 15.9687 10.4193C16.0406 10.4132 16.1099 10.3885 16.17 10.3475V10.2578C16.1703 10.1449 16.1526 10.0327 16.1175 9.92571C16.0409 9.68014 15.8885 9.4668 15.6833 9.31786C15.4781 9.16892 15.2312 9.09248 14.98 9.10007C14.7425 9.08641 14.5063 9.14354 14.2998 9.26457C14.0933 9.3856 13.9253 9.56535 13.8162 9.78212C13.7141 9.98365 13.6489 10.2026 13.6237 10.4283Z" fill="#9999FF"/>
</g>
<defs>
<clipPath id="clip0">
<rect width="21" height="21" fill="white"/>
</clipPath>
</defs>
</svg>
