<svg width="21" height="22" viewBox="0 0 21 22" fill="none" xmlns="http://www.w3.org/2000/svg">
<path d="M13.6875 13.625C13.6875 13.25 13.5938 11.75 11.625 11.75H7.82812V15.5938H11.625C11.8125 15.5938 13.6875 15.6406 13.6875 13.625ZM11.3438 10.2031C11.3438 10.2031 13.125 10.25 13.125 8.51562C13.125 7.76562 12.9844 6.82812 11.3438 6.82812H7.82812V10.2031H11.3438ZM21 4.01562C20.9531 2.09375 19.4062 0.546875 17.4844 0.5H3.46875C1.54688 0.546875 0 2.09375 0 4.01562V18.0312C0 19.9531 1.54688 21.5 3.46875 21.5H17.4844C19.4062 21.5 20.9531 19.9531 21 18.0312V4.01562ZM15.8438 13.9062C15.8438 16.2031 14.0156 16.8594 13.3594 17.0469C12.2344 17.4219 11.6719 17.3281 5.67188 17.3281V5.09375H11.625C15.375 5.09375 15.2812 7.8125 15.2812 8.14062C15.2812 9.40625 14.5781 10.25 13.5469 10.7188V10.7656C15.5156 11.1875 15.8438 12.9219 15.8438 13.9062Z" fill="#563D7C"/>
</svg>
