<svg width="21" height="21" viewBox="0 0 21 21" fill="none" xmlns="http://www.w3.org/2000/svg">
<g clip-path="url(#clip0)">
<path d="M3.71875 1.69263e-06H17.2813C17.7697 -0.000470511 18.2535 0.0978619 18.7049 0.289371C19.1563 0.480881 19.5664 0.761807 19.9118 1.11607C20.2572 1.47034 20.5311 1.89099 20.7179 2.35395C20.9046 2.81691 21.0005 3.3131 21 3.8141V17.1859C21.0005 17.6869 20.9046 18.1831 20.7179 18.646C20.5311 19.109 20.2572 19.5297 19.9118 19.8839C19.5664 20.2382 19.1563 20.5191 18.7049 20.7106C18.2535 20.9021 17.7697 21.0005 17.2813 21H3.71875C3.23027 21.0005 2.74649 20.9021 2.2951 20.7106C1.84372 20.5191 1.43358 20.2382 1.08817 19.8839C0.742762 19.5297 0.468859 19.109 0.282137 18.646C0.0954153 18.1831 -0.000458748 17.6869 1.65032e-06 17.1859V3.8141C-0.000458748 3.3131 0.0954153 2.81691 0.282137 2.35395C0.468859 1.89099 0.742762 1.47034 1.08817 1.11607C1.43358 0.761807 1.84372 0.480881 2.2951 0.289371C2.74649 0.0978619 3.23027 -0.000470511 3.71875 1.69263e-06Z" fill="#330000"/>
<path d="M10.1762 12.6001H6.9212L6.2562 14.7091C6.24877 14.7475 6.22759 14.7817 6.19683 14.805C6.16607 14.8282 6.12795 14.8388 6.08995 14.8347H4.44495C4.3487 14.8347 4.32245 14.7809 4.3487 14.6732L7.1662 6.35394C7.19245 6.26419 7.2187 6.16548 7.2537 6.05778C7.28891 5.86545 7.30649 5.67015 7.3062 5.47445C7.30358 5.45197 7.30933 5.42931 7.32231 5.41101C7.33529 5.3927 7.35454 5.3801 7.3762 5.37573H9.64245C9.71245 5.37573 9.74745 5.40266 9.7562 5.44753L12.9499 14.6911C12.9762 14.7898 12.9499 14.8347 12.8624 14.8347H11.0337C11.0028 14.8378 10.9718 14.8295 10.9462 14.8115C10.9206 14.7934 10.902 14.7667 10.8937 14.736L10.1762 12.6001ZM7.4287 10.7783H9.6512C9.5987 10.5898 9.5287 10.3655 9.44995 10.1321C9.3712 9.89881 9.29245 9.62958 9.2137 9.36035C9.13495 9.09112 9.04745 8.81291 8.95995 8.53471C8.87245 8.2565 8.7937 7.99624 8.7237 7.73599C8.6537 7.47573 8.59245 7.25137 8.5312 7.03599H8.5137C8.43506 7.42713 8.33575 7.8136 8.2162 8.19368C8.08495 8.62445 7.9537 9.07317 7.8137 9.52189C7.6912 9.97958 7.55995 10.4014 7.4287 10.7783Z" fill="#FF9A00"/>
<path d="M14.8574 6.91032C14.7138 6.91354 14.571 6.88743 14.4373 6.8335C14.3036 6.77958 14.1817 6.69892 14.0787 6.59621C13.8782 6.3714 13.7714 6.07507 13.7812 5.77057C13.776 5.62221 13.8014 5.4744 13.8557 5.33677C13.9099 5.19915 13.9919 5.07481 14.0962 4.97185C14.3065 4.76797 14.5855 4.65542 14.8749 4.65775C15.2162 4.65775 15.4787 4.76544 15.6712 4.97185C15.865 5.18946 15.9686 5.47595 15.9599 5.77057C15.9653 5.9222 15.9409 6.07339 15.8883 6.2152C15.8357 6.35701 15.7559 6.48657 15.6537 6.59621C15.5506 6.70392 15.4261 6.7877 15.2888 6.84189C15.1514 6.89607 15.0043 6.91941 14.8574 6.91032ZM13.8774 14.7001V7.7898C13.8774 7.70006 13.9124 7.66416 13.9912 7.66416H15.7237C15.8024 7.66416 15.8374 7.70903 15.8374 7.7898V14.7001C15.8374 14.7988 15.8024 14.8437 15.7237 14.8437H14.0087C13.9903 14.8452 13.9718 14.8425 13.9546 14.8357C13.9374 14.8289 13.9219 14.8182 13.9092 14.8044C13.8966 14.7906 13.8872 14.774 13.8817 14.756C13.8762 14.7379 13.8747 14.7188 13.8774 14.7001Z" fill="#FF9A00"/>
</g>
<defs>
<clipPath id="clip0">
<rect width="21" height="21" fill="white"/>
</clipPath>
</defs>
</svg>
