<svg width="21" height="24" viewBox="0 0 21 24" fill="none" xmlns="http://www.w3.org/2000/svg">
<path d="M10.5 23.8125C10.7812 23.8125 11.1094 23.7656 11.3906 23.5781L20.0625 18.6094C20.625 18.2812 20.9531 17.6719 20.9531 17.0156V7.03125C20.9531 6.375 20.625 5.76562 20.0625 5.4375L11.3906 0.421875C10.8281 0.140625 10.125 0.140625 9.5625 0.421875L0.9375 5.4375C0.375 5.76562 0 6.375 0 7.03125V17.0156C0 17.6719 0.375 18.2812 0.9375 18.6094L3.1875 19.875C4.26562 20.4375 4.6875 20.4375 5.20312 20.4375C6.79688 20.4375 7.73438 19.4531 7.73438 17.7188V7.875C7.73438 7.73438 7.64062 7.64062 7.5 7.64062H6.375C6.23438 7.64062 6.14062 7.73438 6.14062 7.875V17.7188C6.14062 18.5156 5.34375 19.2656 4.07812 18.6094L1.6875 17.25C1.59375 17.2031 1.54688 17.1094 1.54688 17.0156V7.03125C1.54688 6.9375 1.59375 6.84375 1.6875 6.79688L10.3594 1.78125C10.4062 1.73438 10.5469 1.73438 10.5938 1.78125L19.2656 6.79688C19.3594 6.84375 19.4062 6.9375 19.4062 7.03125V17.0156C19.4062 17.1094 19.3594 17.2031 19.2656 17.25L10.5938 22.2656C10.5469 22.3125 10.4062 22.3125 10.3594 22.2656L8.10938 20.9062C8.0625 20.9062 7.96875 20.8594 7.92188 20.9062C7.3125 21.2812 7.17188 21.2812 6.60938 21.5156C6.46875 21.5625 6.23438 21.6562 6.65625 21.8906L9.5625 23.5781C9.84375 23.7656 10.1719 23.8125 10.5 23.8125ZM17.4844 13.9688C17.4844 12.0938 16.2188 11.625 13.5469 11.25C10.875 10.9219 10.5938 10.7344 10.5938 10.0781C10.5938 9.5625 10.8281 8.90625 12.7969 8.90625C14.5781 8.90625 15.2344 9.28125 15.5156 10.4531C15.5156 10.5938 15.6562 10.6875 15.75 10.6875H16.875C16.9688 10.6875 17.0156 10.6406 17.0625 10.5938C17.1094 10.5469 17.1094 10.4531 17.1094 10.4062C16.9688 8.34375 15.5625 7.35938 12.7969 7.35938C10.3125 7.35938 8.85938 8.39062 8.85938 10.1719C8.85938 12.0469 10.3125 12.5625 12.7031 12.7969C15.5156 13.0781 15.75 13.5 15.75 14.0625C15.75 15.0469 14.9531 15.4219 13.1719 15.4219C10.875 15.4219 10.3594 14.8594 10.1719 13.7344C10.1719 13.5938 10.0781 13.5 9.9375 13.5H8.8125C8.67188 13.5 8.57812 13.6406 8.57812 13.7812C8.57812 15.2344 9.375 16.9688 13.1719 16.9688C15.8906 16.9688 17.4844 15.8906 17.4844 13.9688Z" fill="#3C873A"/>
</svg>
