<svg width="21" height="21" viewBox="0 0 21 21" fill="none" xmlns="http://www.w3.org/2000/svg">
<g clip-path="url(#clip0)">
<path d="M3.71875 1.69263e-06H17.2812C17.7697 -0.000470511 18.2535 0.0978619 18.7049 0.289371C19.1563 0.480881 19.5664 0.761807 19.9118 1.11607C20.2572 1.47034 20.5311 1.89099 20.7179 2.35395C20.9046 2.81691 21.0005 3.3131 21 3.8141V17.1859C21.0005 17.6869 20.9046 18.1831 20.7179 18.646C20.5311 19.109 20.2572 19.5297 19.9118 19.8839C19.5664 20.2382 19.1563 20.5191 18.7049 20.7106C18.2535 20.9021 17.7697 21.0005 17.2812 21H3.71875C3.23027 21.0005 2.74649 20.9021 2.2951 20.7106C1.84372 20.5191 1.43358 20.2382 1.08817 19.8839C0.742762 19.5297 0.468858 19.109 0.282137 18.646C0.0954153 18.1831 -0.000458748 17.6869 1.65032e-06 17.1859V3.8141C-0.000458748 3.3131 0.0954153 2.81691 0.282137 2.35395C0.468858 1.89099 0.742762 1.47034 1.08817 1.11607C1.43358 0.761807 1.84372 0.480881 2.2951 0.289371C2.74649 0.0978619 3.23027 -0.000470511 3.71875 1.69263e-06Z" fill="#001E36"/>
<path d="M4.7251 14.7269V5.49229C4.7251 5.42947 4.75135 5.39357 4.8126 5.39357C4.96135 5.39357 5.10135 5.39357 5.3026 5.38459C5.50385 5.37562 5.73135 5.37562 5.9676 5.36664C6.20385 5.35767 6.4576 5.35767 6.72885 5.3487C7.0001 5.33972 7.2626 5.33972 7.5251 5.33972C8.2426 5.33972 8.8376 5.42947 9.3276 5.61793C9.76685 5.77092 10.1674 6.0223 10.5001 6.35382C10.7821 6.64395 10.9999 6.99286 11.1388 7.3769C11.2713 7.7509 11.3394 8.14566 11.3401 8.54357C11.3401 9.31536 11.1651 9.95254 10.8151 10.4551C10.4635 10.957 9.97255 11.3385 9.40635 11.55C8.81135 11.7743 8.1551 11.8551 7.4376 11.8551C7.2276 11.8551 7.0876 11.8551 7.0001 11.8461C6.9126 11.8372 6.7901 11.8372 6.62385 11.8372V14.7179C6.6258 14.7327 6.62484 14.7477 6.62103 14.7621C6.61722 14.7765 6.61063 14.7899 6.60165 14.8016C6.59267 14.8134 6.58149 14.8231 6.56877 14.8303C6.55605 14.8375 6.54205 14.842 6.5276 14.8436H4.8301C4.7601 14.8436 4.7251 14.8077 4.7251 14.7269ZM6.6326 7.12562V10.141C6.7551 10.15 6.86885 10.1589 6.97385 10.1589H7.4376C7.77918 10.1594 8.11872 10.1049 8.44385 9.99741C8.72279 9.91328 8.972 9.74807 9.16135 9.52177C9.3451 9.29741 9.4326 8.99228 9.4326 8.59741C9.44083 8.31697 9.37103 8.03993 9.23135 7.7987C9.08545 7.56568 8.87088 7.38648 8.61885 7.28716C8.29036 7.1552 7.93888 7.0941 7.58635 7.10767C7.35885 7.10767 7.1576 7.10767 6.99135 7.11664C6.87174 7.10862 6.75168 7.11163 6.6326 7.12562Z" fill="#31A8FF"/>
<path d="M16.8001 9.59351C16.536 9.4508 16.253 9.34802 15.9601 9.28838C15.6385 9.21367 15.3099 9.17456 14.9801 9.17172C14.8031 9.16545 14.6261 9.18663 14.4551 9.23454C14.3462 9.2578 14.2495 9.32177 14.1839 9.41403C14.1397 9.48684 14.1155 9.57057 14.1139 9.65633C14.118 9.74171 14.1486 9.8235 14.2014 9.88967C14.2843 9.98943 14.3854 10.0717 14.4989 10.132C14.7001 10.2397 14.9101 10.3384 15.1201 10.4281C15.5929 10.5914 16.0452 10.8113 16.4676 11.0833C16.755 11.2686 16.9926 11.5246 17.1589 11.8281C17.2995 12.1144 17.3687 12.432 17.3601 12.7525C17.3672 13.1767 17.2482 13.593 17.0189 13.9461C16.7748 14.3043 16.4343 14.5819 16.0389 14.7448C15.6101 14.9333 15.0851 15.032 14.4551 15.032C14.0557 15.0336 13.6571 14.9945 13.2651 14.9153C12.9565 14.8606 12.6564 14.764 12.3726 14.6281C12.3421 14.6124 12.3168 14.5879 12.2997 14.5576C12.2826 14.5273 12.2745 14.4926 12.2764 14.4576V12.8961C12.2756 12.8807 12.2784 12.8654 12.2845 12.8514C12.2906 12.8374 12.2998 12.825 12.3114 12.8153C12.3237 12.8079 12.338 12.8048 12.3522 12.8065C12.3664 12.8081 12.3797 12.8143 12.3901 12.8243C12.7272 13.0281 13.0933 13.1765 13.4751 13.264C13.8123 13.354 14.1593 13.3992 14.5076 13.3986C14.8401 13.3986 15.0764 13.3538 15.2339 13.273C15.3041 13.2397 15.3637 13.1866 15.4055 13.1198C15.4474 13.0531 15.4698 12.9754 15.4701 12.8961C15.4701 12.7704 15.4001 12.6538 15.2601 12.5371C15.1201 12.4204 14.8314 12.2858 14.4026 12.1153C13.9628 11.9563 13.5451 11.7391 13.1601 11.4692C12.886 11.2687 12.6588 11.0081 12.4951 10.7063C12.3555 10.4229 12.2864 10.1084 12.2939 9.79095C12.2952 9.40801 12.398 9.03264 12.5914 8.70505C12.8137 8.34478 13.1327 8.05807 13.5101 7.87941C13.9214 7.66403 14.4376 7.56531 15.0589 7.56531C15.422 7.56541 15.7846 7.59241 16.1439 7.64608C16.4022 7.68193 16.6551 7.75129 16.8964 7.85249C16.9348 7.86646 16.9663 7.89551 16.9839 7.93326C16.994 7.96829 16.9999 8.00445 17.0014 8.04095V9.50377C17.0015 9.52121 16.9976 9.53843 16.99 9.55403C16.9824 9.56963 16.9713 9.58316 16.9576 9.59351C16.9067 9.61228 16.8511 9.61228 16.8001 9.59351Z" fill="#31A8FF"/>
</g>
<defs>
<clipPath id="clip0">
<rect width="21" height="21" fill="white"/>
</clipPath>
</defs>
</svg>
