<svg width="30" height="16" viewBox="0 0 30 16" fill="none" xmlns="http://www.w3.org/2000/svg">
<path d="M15 0.921875C23.0156 0.921875 29.2031 4.29688 29.2031 8C29.2031 11.75 23.0156 15.125 15 15.125C6.9375 15.125 0.75 11.75 0.75 8C0.75 4.29688 6.9375 0.921875 15 0.921875ZM15 0.125C6.70312 0.125 0 3.64062 0 8C0 12.3594 6.70312 15.9219 15 15.9219C23.25 15.9219 30 12.3594 30 8C30 3.64062 23.25 0.125 15 0.125ZM10.2188 7.39062C9.84375 9.26562 8.53125 9.07812 6.9375 9.07812L7.54688 5.79688C9.32812 5.79688 10.5469 5.60938 10.2188 7.39062ZM4.54688 12.4531H6.28125L6.65625 10.3438C8.57812 10.3438 9.79688 10.4844 10.9219 9.45312C12.1406 8.32812 12.4219 6.3125 11.5781 5.32812C11.1094 4.8125 10.4062 4.53125 9.375 4.53125H6.09375L4.54688 12.4531ZM13.2656 2.42188L11.7188 10.3438H13.4062L14.2969 5.79688C15.7031 5.79688 16.2656 5.75 16.5469 6.03125C16.7812 6.3125 16.6406 6.59375 15.9375 10.3438H17.6719C18.4219 6.5 18.75 5.65625 18.0469 5.04688C17.3906 4.4375 16.0312 4.53125 14.5312 4.53125L14.9531 2.42188H13.2656ZM23.6719 7.39062C23.2969 9.3125 21.9375 9.07812 20.3438 9.07812L21 5.79688C22.7812 5.79688 24 5.60938 23.6719 7.39062ZM18 12.4531H19.7344L20.1094 10.3438C22.125 10.3438 23.25 10.4375 24.3281 9.45312C25.5938 8.32812 25.875 6.3125 25.0312 5.32812C24.5625 4.8125 23.8125 4.53125 22.8281 4.53125H19.5469L18 12.4531Z" fill="#474A8A"/>
</svg>
