<svg width="21" height="21" viewBox="0 0 21 21" fill="none" xmlns="http://www.w3.org/2000/svg">
<g clip-path="url(#clip0)">
<path d="M3.71875 1.69263e-06H17.2813C17.7697 -0.000470511 18.2535 0.0978619 18.7049 0.289371C19.1563 0.480881 19.5664 0.761807 19.9118 1.11607C20.2572 1.47034 20.5311 1.89099 20.7179 2.35395C20.9046 2.81691 21.0005 3.3131 21 3.8141V17.1859C21.0005 17.6869 20.9046 18.1831 20.7179 18.646C20.5311 19.109 20.2572 19.5297 19.9118 19.8839C19.5664 20.2382 19.1563 20.5191 18.7049 20.7106C18.2535 20.9021 17.7697 21.0005 17.2813 21H3.71875C3.23027 21.0005 2.74649 20.9021 2.2951 20.7106C1.84372 20.5191 1.43358 20.2382 1.08817 19.8839C0.742762 19.5297 0.468859 19.109 0.282137 18.646C0.0954154 18.1831 -0.000458748 17.6869 1.65032e-06 17.1859V3.8141C-0.000458748 3.3131 0.0954154 2.81691 0.282137 2.35395C0.468859 1.89099 0.742762 1.47034 1.08817 1.11607C1.43358 0.761807 1.84372 0.480881 2.2951 0.289371C2.74649 0.0978619 3.23027 -0.000470511 3.71875 1.69263e-06Z" fill="#00005B"/>
<path d="M4.98755 14.7269V5.49229C4.98755 5.42947 5.0138 5.39357 5.07505 5.39357C5.2238 5.39357 5.3638 5.39357 5.56505 5.38459C5.7663 5.37562 5.9938 5.37562 6.23005 5.36664C6.4663 5.35767 6.72005 5.35767 6.9913 5.3487C7.26255 5.33972 7.52505 5.33972 7.78755 5.33972C8.50505 5.33972 9.10005 5.42947 9.59005 5.61793C10.0293 5.77092 10.4298 6.0223 10.7625 6.35382C11.0445 6.64395 11.2623 6.99286 11.4013 7.3769C11.5338 7.7509 11.6018 8.14566 11.6026 8.54357C11.6026 9.31536 11.4275 9.95254 11.0775 10.4551C10.7259 10.957 10.235 11.3385 9.6688 11.55C9.0738 11.7743 8.41755 11.8551 7.70005 11.8551C7.49005 11.8551 7.35005 11.8551 7.26255 11.8461C7.17505 11.8372 7.05255 11.8372 6.8863 11.8372V14.7179C6.88825 14.7327 6.88729 14.7477 6.88348 14.7621C6.87967 14.7765 6.87308 14.7899 6.8641 14.8016C6.85512 14.8134 6.84394 14.8231 6.83122 14.8303C6.8185 14.8375 6.8045 14.842 6.79005 14.8436H5.09255C5.02255 14.8436 4.98755 14.8077 4.98755 14.7269ZM6.89505 7.12562V10.141C7.01755 10.15 7.1313 10.159 7.2363 10.159H7.70005C8.04164 10.1594 8.38117 10.1049 8.7063 9.99742C8.98524 9.91328 9.23445 9.74808 9.4238 9.52177C9.60755 9.29742 9.69505 8.99229 9.69505 8.59742C9.70328 8.31698 9.63348 8.03993 9.4938 7.7987C9.3479 7.56568 9.13333 7.38648 8.8813 7.28716C8.55281 7.1552 8.20133 7.0941 7.8488 7.10767C7.6213 7.10767 7.42005 7.10767 7.2538 7.11665C7.13419 7.10863 7.01413 7.11163 6.89505 7.12562Z" fill="#9999FF"/>
<path d="M12.8275 7.64613H14.3587C14.4002 7.64715 14.4403 7.66159 14.4733 7.68738C14.5063 7.71316 14.5305 7.74898 14.5425 7.78972C14.5692 7.86192 14.5868 7.93731 14.595 8.01408C14.6125 8.10382 14.63 8.20254 14.6387 8.29228C14.6475 8.38203 14.6562 8.49869 14.6562 8.61536C14.919 8.30078 15.2364 8.03907 15.5925 7.84356C15.9992 7.61184 16.4572 7.49131 16.9225 7.49356C16.9369 7.49156 16.9515 7.49254 16.9655 7.49645C16.9796 7.50037 16.9927 7.50713 17.0041 7.51633C17.0155 7.52554 17.025 7.53701 17.0321 7.55005C17.0391 7.5631 17.0435 7.57746 17.045 7.59228V9.37818C17.045 9.44998 17.0012 9.4769 16.905 9.4769C16.5876 9.46624 16.2701 9.49639 15.96 9.56664C15.7072 9.62016 15.4608 9.7014 15.225 9.80895C15.0557 9.88724 14.9038 10.0002 14.7787 10.141V14.7179C14.7787 14.8077 14.7437 14.8436 14.665 14.8436H12.9412C12.9251 14.8464 12.9086 14.8458 12.8927 14.8418C12.8768 14.8378 12.8618 14.8306 12.8487 14.8205C12.8356 14.8104 12.8247 14.7978 12.8165 14.7832C12.8083 14.7686 12.8031 14.7525 12.8012 14.7359V9.72818C12.8012 9.5128 12.8012 9.28844 12.7925 9.0551C12.7837 8.82177 12.7837 8.58844 12.775 8.3551C12.775 8.14869 12.7575 7.95126 12.74 7.74485C12.7377 7.73424 12.7374 7.72326 12.7392 7.71255C12.7411 7.70184 12.7449 7.69161 12.7506 7.68244C12.7563 7.67327 12.7637 7.66534 12.7724 7.6591C12.7811 7.65287 12.7909 7.64846 12.8012 7.64613C12.8012 7.63715 12.8187 7.63715 12.8275 7.64613Z" fill="#9999FF"/>
</g>
<defs>
<clipPath id="clip0">
<rect width="21" height="21" fill="white"/>
</clipPath>
</defs>
</svg>
