<svg width="24" height="22" viewBox="0 0 24 22" fill="none" xmlns="http://www.w3.org/2000/svg">
<path d="M19.5938 7.34375C19.3125 7.25 19.0781 7.15625 18.8438 7.10938C18.8438 6.92188 18.8906 6.73438 18.9375 6.54688C19.5 3.78125 19.125 1.53125 17.8594 0.78125C16.6406 0.078125 14.625 0.828125 12.5625 2.60938C12.375 2.75 12.1875 2.9375 12 3.125C11.8594 2.98438 11.7188 2.89062 11.625 2.75C9.46875 0.875 7.3125 0.078125 6.04688 0.828125C4.82812 1.53125 4.45312 3.64062 4.96875 6.3125C5.01562 6.54688 5.0625 6.82812 5.15625 7.0625C4.82812 7.15625 4.54688 7.25 4.26562 7.34375C1.78125 8.23438 0 9.59375 0 11C0 12.4531 1.875 13.9531 4.5 14.8438C4.6875 14.8906 4.92188 14.9844 5.10938 15.0312C5.0625 15.3125 5.01562 15.5938 4.92188 15.875C4.45312 18.4531 4.82812 20.5156 6.04688 21.2188C7.3125 21.9688 9.46875 21.2188 11.5312 19.3906C11.6719 19.25 11.8594 19.1094 12 18.9688C12.2344 19.1562 12.4219 19.3438 12.6562 19.5312C14.6719 21.2656 16.6406 21.9688 17.8594 21.2656C19.125 20.5156 19.5469 18.3125 19.0312 15.5938C18.9844 15.4062 18.9375 15.1719 18.8906 14.9844C19.0312 14.9375 19.1719 14.8906 19.3125 14.8438C22.0312 13.9531 24 12.5 24 11C24 9.59375 22.125 8.1875 19.5938 7.34375ZM13.2188 3.35938C15 1.8125 16.5938 1.25 17.3438 1.67188C18.1406 2.09375 18.4688 3.96875 17.9531 6.35938C17.9062 6.54688 17.9062 6.6875 17.8594 6.82812C16.7812 6.59375 15.75 6.45312 14.6719 6.35938C14.0625 5.46875 13.4062 4.625 12.7031 3.82812C12.8906 3.6875 13.0312 3.5 13.2188 3.35938ZM7.82812 13.4375C8.0625 13.8594 8.29688 14.2344 8.57812 14.6562C7.82812 14.5625 7.07812 14.4688 6.375 14.2812C6.60938 13.625 6.84375 12.9219 7.125 12.2188C7.35938 12.6406 7.59375 13.0156 7.82812 13.4375ZM6.375 7.8125C7.07812 7.625 7.78125 7.53125 8.53125 7.4375C8.29688 7.8125 8.0625 8.23438 7.82812 8.60938C7.59375 9.03125 7.35938 9.40625 7.125 9.82812C6.84375 9.125 6.60938 8.46875 6.375 7.8125ZM7.6875 11.0469C7.96875 10.3906 8.34375 9.73438 8.67188 9.125C9.04688 8.51562 9.42188 7.90625 9.84375 7.29688C10.5469 7.25 11.25 7.20312 12 7.20312C12.7031 7.20312 13.4531 7.25 14.1094 7.29688C14.5312 7.90625 14.9062 8.51562 15.2812 9.125C15.6094 9.73438 15.9844 10.3438 16.2656 11C15.9844 11.6562 15.6562 12.3125 15.2812 12.9219C14.9062 13.5312 14.5312 14.1406 14.1562 14.75C13.4531 14.7969 12.7031 14.8438 12 14.8438C11.25 14.8438 10.5469 14.7969 9.84375 14.75C9.42188 14.1406 9.04688 13.5312 8.67188 12.9219C8.34375 12.3125 8.01562 11.6562 7.6875 11.0469ZM16.125 13.4375C16.4062 13.0156 16.5938 12.5938 16.8281 12.1719C17.1094 12.875 17.3906 13.5312 17.625 14.2344C16.875 14.4219 16.1719 14.5625 15.4219 14.6094C15.6562 14.2344 15.8906 13.8125 16.125 13.4375ZM16.8281 9.82812C16.5938 9.40625 16.3594 9.03125 16.125 8.60938C15.8906 8.23438 15.6562 7.8125 15.4219 7.4375C16.1719 7.53125 16.9219 7.67188 17.5781 7.8125C17.3438 8.51562 17.1094 9.17188 16.8281 9.82812ZM12 4.57812C12.4688 5.09375 12.9375 5.65625 13.3594 6.26562C12.4688 6.21875 11.5312 6.21875 10.5938 6.26562C11.0625 5.65625 11.5312 5.09375 12 4.57812ZM6.5625 1.67188C7.35938 1.25 9.09375 1.90625 10.9219 3.5C11.0625 3.64062 11.1562 3.73438 11.2969 3.82812C10.5469 4.625 9.89062 5.46875 9.28125 6.35938C8.20312 6.45312 7.17188 6.59375 6.14062 6.82812C6.04688 6.59375 6 6.35938 5.95312 6.07812C5.53125 3.82812 5.8125 2.14062 6.5625 1.67188ZM5.39062 14.0469C5.20312 14 5.01562 13.9531 4.82812 13.8594C3.84375 13.5312 2.67188 13.0625 1.875 12.4062C1.40625 12.0781 1.07812 11.5625 0.984375 11C0.984375 10.1562 2.48438 9.03125 4.59375 8.28125C4.875 8.1875 5.15625 8.14062 5.4375 8.04688C5.71875 9.07812 6.14062 10.0625 6.5625 11.0469C6.09375 11.9844 5.71875 13.0156 5.39062 14.0469ZM10.875 18.6406C10.0781 19.3438 9.1875 19.9062 8.20312 20.2812C7.6875 20.5625 7.125 20.5625 6.5625 20.375C5.8125 19.9062 5.53125 18.2656 5.95312 16.0625C6 15.7812 6.04688 15.5 6.09375 15.2656C7.17188 15.5 8.20312 15.6406 9.28125 15.7344C9.89062 16.5781 10.5938 17.4219 11.2969 18.2188C11.1562 18.3594 11.0156 18.5 10.875 18.6406ZM12 17.5156C11.5312 17 11.0625 16.4375 10.5938 15.7812C11.0625 15.8281 11.5312 15.8281 12 15.8281C12.4688 15.8281 12.9375 15.8281 13.4062 15.7812C12.9844 16.3906 12.5156 16.9531 12 17.5156ZM18.1406 18.9219C18.0938 19.4844 17.8125 20 17.3906 20.375C16.6406 20.7969 15.0469 20.2344 13.3125 18.7812C13.125 18.5938 12.9375 18.4062 12.7031 18.2188C13.4531 17.4219 14.1094 16.625 14.7188 15.7344C15.7969 15.6406 16.8281 15.4531 17.9062 15.2188C17.9531 15.4062 18 15.5938 18.0469 15.7812C18.2344 16.8125 18.2812 17.8906 18.1406 18.9219ZM18.9844 13.8594C18.8438 13.9062 18.75 13.9531 18.6094 14C18.2812 12.9688 17.8594 11.9844 17.3906 11C17.8594 10.0625 18.2344 9.07812 18.5625 8.04688C18.7969 8.14062 19.0312 8.1875 19.2656 8.28125C21.4219 9.03125 22.9688 10.1562 22.9688 11C22.9688 11.8906 21.3281 13.1094 18.9844 13.8594ZM12 13.1562C13.1719 13.1562 14.1094 12.2188 14.1094 11C14.1094 9.82812 13.1719 8.89062 12 8.89062C10.7812 8.89062 9.84375 9.82812 9.84375 11C9.84375 12.2188 10.7812 13.1562 12 13.1562Z" fill="#61DBFB"/>
</svg>
