<svg width="29" height="22" viewBox="0 0 29 22" fill="none" xmlns="http://www.w3.org/2000/svg">
<path d="M13.9336 16.0352C13.9336 16.0781 13.9336 16.0781 13.9336 16.0352V16.0352ZM24.6328 12.2969C23.7734 12.2969 22.9141 12.5117 22.1406 12.8984C21.9258 12.3828 21.625 11.9531 21.582 11.6094C21.5391 11.2227 21.4961 10.9648 21.5391 10.5352C21.625 10.0625 21.8828 9.375 21.8828 9.33203C21.8828 9.28906 21.8398 9.07422 21.2812 9.07422C20.7227 9.07422 20.25 9.16016 20.1641 9.33203C20.0781 9.58984 19.9922 9.84766 19.9492 10.1484C19.8633 10.6211 18.832 12.4258 18.2734 13.3711C18.1016 12.9844 17.9297 12.6836 17.8867 12.4258C17.8438 12.0391 17.8008 11.7812 17.8438 11.3516C17.8867 10.8789 18.1875 10.2344 18.1875 10.1484C18.1445 10.1055 18.1016 9.89062 17.543 9.89062C16.9844 9.89062 16.5117 9.97656 16.4688 10.1484C16.4258 10.2773 16.3398 10.6211 16.2539 10.9648C16.125 11.2656 14.793 14.2734 14.4492 15.0469C14.2344 15.4336 14.1055 15.7773 13.9766 15.9922C13.9766 16.0352 13.9766 16.0352 13.9336 16.0352C13.9766 16.0352 13.9766 15.9922 13.9766 16.0352C13.8906 16.207 13.8047 16.293 13.8047 16.293C13.7617 16.4648 13.6758 16.5938 13.6328 16.5938C13.5898 16.5938 13.5469 16.207 13.6328 15.7344C13.8477 14.6602 14.3203 13.0703 14.3203 13.0273C14.3203 12.9844 14.4062 12.6836 14.0195 12.5547C13.5898 12.4258 13.4609 12.6406 13.418 12.6406L13.375 12.7266C13.375 12.7266 13.8047 10.9219 12.5586 10.9219C11.7422 10.9219 10.668 11.7812 10.1094 12.5547C9.76562 12.7266 9.03516 13.1562 8.26172 13.5859C7.96094 13.7148 7.66016 13.8867 7.35938 14.0586L7.31641 14.0156C5.76953 12.3398 2.93359 11.1797 3.0625 8.98828C3.10547 8.17188 3.36328 6.06641 8.51953 3.53125C12.7305 1.42578 16.082 1.98438 16.6836 3.27344C17.5 5.12109 14.8789 8.51562 10.4961 8.98828C8.82031 9.16016 7.96094 8.51562 7.74609 8.30078C7.48828 8.04297 7.48828 8.04297 7.40234 8.08594C7.23047 8.12891 7.31641 8.38672 7.40234 8.51562C7.53125 8.85938 8.04688 9.46094 8.94922 9.76172C9.76562 10.0195 11.7422 10.1484 14.1055 9.24609C16.7266 8.21484 18.7891 5.37891 18.1875 2.97266C17.5859 0.566406 13.5898 -0.25 9.76562 1.125C7.48828 1.89844 5.03906 3.1875 3.27734 4.82031C1.21484 6.79688 0.871094 8.47266 1 9.20312C1.51562 11.7383 4.99609 13.3711 6.37109 14.6172C6.32812 14.6602 6.24219 14.6602 6.19922 14.7031C5.46875 15.0469 2.84766 16.4648 2.16016 17.9258C1.42969 19.6016 2.28906 20.8047 2.84766 20.9336C4.65234 21.4492 6.5 20.5469 7.48828 19.0859C8.47656 17.582 8.34766 15.6914 7.875 14.7891C7.875 14.7891 7.875 14.7891 7.875 14.7461C8.04688 14.6602 8.26172 14.5312 8.43359 14.4453C8.77734 14.2305 9.12109 14.0586 9.42188 13.8867C9.25 14.3164 9.12109 14.875 9.07812 15.6914C8.99219 16.6367 9.37891 17.8828 9.89453 18.3555C10.1094 18.5703 10.4102 18.5703 10.5391 18.5703C11.1406 18.5703 11.3984 18.0977 11.6992 17.4961C12.0859 16.7656 12.3867 15.9492 12.3867 15.9492C12.3867 15.9492 12 18.1836 13.1172 18.1836C13.5039 18.1836 13.8906 17.668 14.1055 17.4102C14.1055 17.4102 14.1055 17.4102 14.1055 17.3672C14.1484 17.2812 14.1914 17.2383 14.1914 17.2383C14.3633 16.9805 14.707 16.3359 15.2227 15.2617C15.9531 13.8867 16.5977 12.2109 16.5977 12.2109C16.6836 12.5547 16.7695 12.9414 16.8555 13.2852C16.9844 13.7148 17.2422 14.1445 17.457 14.5742C17.2852 14.832 17.1992 14.9609 17.1992 14.9609C17.0703 15.1328 16.8984 15.3047 16.7695 15.4766C16.2109 16.1641 15.5664 16.8945 15.4805 17.1094C15.3516 17.3672 15.3945 17.5391 15.6094 17.7109C15.7383 17.7969 15.9961 17.8398 16.2539 17.7969C16.7695 17.7539 17.1133 17.668 17.2852 17.582C17.5859 17.4531 17.8867 17.3242 18.1445 17.1094C18.7031 16.7227 19.0039 16.1641 18.9609 15.3906C18.9609 15.0039 18.832 14.5742 18.6602 14.1875C18.7031 14.1445 18.7461 14.0586 18.832 13.9727C19.6484 12.7266 20.3359 11.3516 20.3359 11.3516C20.3789 11.7383 20.4648 12.125 20.5938 12.4688C20.6797 12.8125 20.8945 13.1992 21.0664 13.5859C20.293 14.2305 19.7773 15.0039 19.6055 15.4766C19.3047 16.3789 19.5625 16.8086 19.9922 16.8945C20.207 16.9375 20.5078 16.8516 20.7656 16.7656C21.0664 16.6367 21.4102 16.4648 21.668 16.293C22.2266 15.8633 22.7422 15.3047 22.6992 14.5742C22.6992 14.2305 22.5703 13.8867 22.4414 13.5859C23.1289 13.2852 24.0312 13.1133 25.1484 13.2422C27.5117 13.543 27.9844 15.0469 27.8984 15.6484C27.8125 16.293 27.2969 16.6367 27.125 16.7227C26.9531 16.8516 26.9102 16.8516 26.9531 16.9375C26.9531 17.0664 27.0391 17.0664 27.168 17.0234C27.3828 16.9805 28.4141 16.5078 28.457 15.3477C28.543 13.8867 27.125 12.2969 24.6328 12.2969ZM6.19922 18.5273C5.42578 19.3867 4.30859 19.7305 3.83594 19.4297C3.32031 19.1289 3.53516 17.8828 4.52344 16.9375C5.08203 16.3789 5.85547 15.8633 6.37109 15.5625C6.5 15.4766 6.62891 15.3906 6.84375 15.2617C6.88672 15.2617 6.88672 15.2188 6.88672 15.2188C6.92969 15.2188 6.97266 15.1758 7.01562 15.1758C7.40234 16.4648 7.05859 17.625 6.19922 18.5273ZM12 14.6172C11.6992 15.2617 11.1406 16.9805 10.7969 16.8945C10.4961 16.8516 10.2812 15.5195 10.7109 14.2305C10.9258 13.5859 11.3984 12.8125 11.6562 12.5117C12.0859 12.0391 12.5586 11.8672 12.6875 12.082C12.8164 12.2969 12.1719 14.1875 12 14.6172ZM16.7695 16.8945C16.6406 16.9375 16.5117 16.9805 16.4688 16.9375C16.4258 16.9375 16.5117 16.8516 16.5117 16.8516C16.5117 16.8516 17.1133 16.207 17.3711 15.9062C17.5 15.7344 17.6719 15.5625 17.8438 15.3047C17.8438 15.3477 17.8438 15.3477 17.8438 15.3906C17.8438 16.1641 17.0703 16.6797 16.7695 16.8945ZM20.4219 16.0352C20.3359 15.9922 20.3789 15.7773 20.6367 15.1758C20.7656 14.918 21.0234 14.4883 21.4531 14.1016C21.4961 14.2305 21.5391 14.4023 21.5391 14.5742C21.5391 15.5195 20.8516 15.9062 20.4219 16.0352Z" fill="#CD6799"/>
</svg>
