<svg width="28" height="17" viewBox="0 0 28 17" fill="none" xmlns="http://www.w3.org/2000/svg">
<path d="M14 0.022583C10.2667 0.022583 7.9333 1.90649 7 5.67418C8.4 3.79028 10.0333 3.08383 11.9 3.55483C12.965 3.8235 13.7262 4.60336 14.5689 5.46644C15.9415 6.8726 17.5301 8.49998 21 8.49998C24.7333 8.49998 27.0667 6.61607 28 2.84838C26.6 4.73228 24.9667 5.43873 23.1 4.96773C22.035 4.69906 21.2738 3.9192 20.4311 3.05612C19.0585 1.64996 17.4699 0.022583 14 0.022583ZM7 8.49998C3.2667 8.49998 0.933297 10.3839 0 14.1516C1.4 12.2677 3.0333 11.5612 4.9 12.0322C5.96498 12.3009 6.72623 13.0807 7.56886 13.9438C8.94152 15.35 10.5301 16.9774 14 16.9774C17.7333 16.9774 20.0667 15.0935 21 11.3258C19.6 13.2097 17.9667 13.9161 16.1 13.4451C15.035 13.1765 14.2738 12.3966 13.4311 11.5335C12.0585 10.1273 10.4699 8.49998 7 8.49998Z" fill="url(#paint0_linear)"/>
<defs>
<linearGradient id="paint0_linear" x1="-0.77784" y1="5.44812" x2="23.5149" y2="19.327" gradientUnits="userSpaceOnUse">
<stop stop-color="#2298BD"/>
<stop offset="1" stop-color="#0ED7B5"/>
</linearGradient>
</defs>
</svg>
