<svg width="21" height="21" viewBox="0 0 21 21" fill="none" xmlns="http://www.w3.org/2000/svg">
<g clip-path="url(#clip0)">
<path d="M3.71875 1.69263e-06H17.2812C17.7697 -0.000470511 18.2535 0.0978619 18.7049 0.289371C19.1563 0.480881 19.5664 0.761807 19.9118 1.11607C20.2572 1.47034 20.5311 1.89099 20.7179 2.35395C20.9046 2.81691 21.0005 3.3131 21 3.8141V17.1859C21.0005 17.6869 20.9046 18.1831 20.7179 18.646C20.5311 19.109 20.2572 19.5297 19.9118 19.8839C19.5664 20.2382 19.1563 20.5191 18.7049 20.7106C18.2535 20.9021 17.7697 21.0005 17.2812 21H3.71875C3.23027 21.0005 2.74649 20.9021 2.2951 20.7106C1.84372 20.5191 1.43358 20.2382 1.08817 19.8839C0.742762 19.5297 0.468859 19.109 0.282137 18.646C0.0954153 18.1831 -0.000458748 17.6869 1.65032e-06 17.1859V3.8141C-0.000458748 3.3131 0.0954153 2.81691 0.282137 2.35395C0.468859 1.89099 0.742762 1.47034 1.08817 1.11607C1.43358 0.761807 1.84372 0.480881 2.2951 0.289371C2.74649 0.0978619 3.23027 -0.000470511 3.71875 1.69263e-06Z" fill="#470137"/>
<path d="M11.0424 5.51931L8.4174 9.96162L11.2174 14.6732C11.2358 14.7057 11.242 14.744 11.2349 14.7809C11.2261 14.8168 11.1911 14.7898 11.1386 14.7988H9.1349C8.9949 14.7988 8.89865 14.7898 8.8374 14.7001C8.65365 14.3232 8.46115 13.9552 8.2774 13.5783C8.09365 13.2014 7.8924 12.8334 7.6824 12.4475C7.4724 12.0616 7.2624 11.6757 7.0524 11.2809H7.0349C6.85115 11.6668 6.6499 12.0526 6.44865 12.4385C6.2474 12.8244 6.04615 13.2103 5.85365 13.5873C5.66115 13.9642 5.45115 14.3501 5.2499 14.718C5.2149 14.8078 5.1449 14.8168 5.04865 14.8168H3.12365C3.08865 14.8168 3.0624 14.8347 3.0624 14.7898C3.05849 14.773 3.05803 14.7556 3.06104 14.7386C3.06406 14.7216 3.07048 14.7054 3.0799 14.6911L5.80115 10.1142L3.1499 5.51034C3.12365 5.47444 3.1149 5.43855 3.1324 5.4206C3.14307 5.4078 3.1566 5.39785 3.17184 5.3916C3.18708 5.38535 3.20357 5.38298 3.2199 5.3847H5.20615C5.24753 5.38562 5.28866 5.39165 5.32865 5.40265C5.3637 5.42199 5.39371 5.44969 5.41615 5.48342C5.5824 5.86931 5.7749 6.25521 5.97615 6.64111C6.1774 7.02701 6.3874 7.40393 6.60615 7.78085C6.8249 8.15778 7.00865 8.5347 7.1924 8.9206H7.2099C7.39365 8.52573 7.58615 8.13983 7.77865 7.7629C7.97115 7.38598 8.1724 7.00906 8.37365 6.63214C8.5749 6.25521 8.7674 5.86931 8.9599 5.50137C8.96653 5.46604 8.98513 5.43425 9.0124 5.41162C9.04705 5.39202 9.08736 5.38566 9.12615 5.39367H10.9724C10.9827 5.39129 10.9934 5.39103 11.0039 5.3929C11.0143 5.39477 11.0243 5.39874 11.0332 5.40458C11.0422 5.41041 11.0499 5.41801 11.056 5.42691C11.0621 5.43582 11.0664 5.44588 11.0686 5.45649C11.0774 5.46547 11.0599 5.50137 11.0424 5.51931Z" fill="#FF61F6"/>
<path d="M15.085 14.9872C14.4364 14.9981 13.7936 14.8601 13.2037 14.5834C12.6549 14.3201 12.1949 13.8952 11.8825 13.3629C11.5587 12.8154 11.4012 12.1334 11.4012 11.3167C11.3923 10.6526 11.5586 9.9983 11.8825 9.42311C12.2145 8.83852 12.6955 8.35765 13.2737 8.03209C13.8862 7.68209 14.6212 7.51157 15.4875 7.51157C15.5488 7.51086 15.6102 7.51386 15.6712 7.52055C15.75 7.52952 15.8375 7.52952 15.9425 7.5385V4.7026C15.9425 4.63978 15.9687 4.60388 16.03 4.60388H17.8062C17.8258 4.60116 17.8457 4.60611 17.8619 4.61775C17.8782 4.62939 17.8895 4.64687 17.8937 4.6667V13.2282C17.8937 13.3898 17.9025 13.5693 17.9112 13.7667C17.92 13.9641 17.9375 14.1347 17.9462 14.2872C17.9481 14.3175 17.9406 14.3477 17.925 14.3734C17.9093 14.3992 17.8861 14.4192 17.8587 14.4308C17.4004 14.6284 16.922 14.7728 16.4325 14.8616C15.9878 14.9438 15.5369 14.9859 15.085 14.9872ZM15.9425 13.1923V9.24362C15.8646 9.22434 15.7857 9.20936 15.7062 9.19875C15.61 9.18978 15.5137 9.1808 15.4175 9.1808C15.0745 9.17684 14.7355 9.25683 14.4287 9.41414C14.1297 9.56694 13.8737 9.79553 13.685 10.0782C13.4925 10.3654 13.3962 10.7513 13.3962 11.218C13.3886 11.533 13.4391 11.8466 13.545 12.1423C13.6296 12.3815 13.7639 12.5989 13.9387 12.7795C14.1074 12.9446 14.311 13.0675 14.5337 13.1385C14.7681 13.2172 15.0133 13.2566 15.26 13.2552C15.3912 13.2552 15.5137 13.2462 15.6275 13.2372C15.7344 13.245 15.8417 13.2297 15.9425 13.1923Z" fill="#FF61F6"/>
</g>
<defs>
<clipPath id="clip0">
<rect width="21" height="21" fill="white"/>
</clipPath>
</defs>
</svg>
