<svg width="145" height="388" viewBox="0 0 145 388" fill="none" xmlns="http://www.w3.org/2000/svg">
<g clip-path="url(#clip0)">
<path d="M4.5889 127.838C4.5889 127.838 1.08766 147.445 0.744141 167.384C0.744141 181.964 3.24125 193.863 1.74827 209.451L1.57651 210.619C1.57651 210.619 2.73919 211.879 3.78295 210.194C4.82672 208.523 5.07775 203.999 5.07775 203.999C5.07775 203.999 5.28914 212.635 5.07775 214.307C4.86635 215.978 5.87048 215.222 6.49146 215.315C7.11243 215.394 7.70698 207.143 7.70698 206.519C7.70698 205.896 8.32795 218.419 8.32795 219.082C8.32795 219.746 9.9927 219.706 10.3362 219.082C10.6665 218.459 11.3403 209.743 11.5517 207.859C11.5517 207.859 12.1331 217.159 12.2652 217.703C12.3841 218.247 14.5245 218.379 14.8152 216.787C15.1058 215.195 15.3172 200.908 14.8152 198.109C14.8152 198.109 19.7433 199.992 21.4081 201.584C23.0728 203.176 24.4997 200.749 24.7904 200.112C25.0811 199.475 15.2379 194.5 12.3577 190.268C12.3577 190.268 12.437 148.453 24.1298 126.843C14.432 118.445 4.5889 127.838 4.5889 127.838Z" fill="#FFA983"/>
<path d="M90.3628 122.094C90.3628 122.094 94.3661 127.997 96.7443 130.385C99.1225 132.773 104.13 135.041 111.198 131.075C123.909 117.689 128.665 100.032 131.915 85.6382C133.289 82.1227 141.428 73.3803 143.489 70.873L144.731 69.3209C144.731 69.3209 144.85 68.2861 143.7 68.0606C142.538 67.835 138.178 73.0354 138.178 73.0354C138.178 73.0354 144.057 64.6512 144.203 64.3195C144.348 63.9879 143.331 63.2052 142.934 63.0592C142.538 62.9133 137.742 68.0473 136.883 68.8433C136.024 69.6392 141.137 60.406 141.349 59.7958C141.56 59.1855 140.12 58.4161 139.486 58.2304C138.865 58.0446 133.62 66.588 132.999 67.3442C132.378 68.1004 135.271 59.5702 135.522 58.6681C135.773 57.766 134.227 57.8058 133.765 57.7926C133.302 57.766 127.093 71.2179 126.023 73.6058C126.023 73.6058 122.059 68.1004 118.492 67.3442C118.492 67.3442 117.276 67.6361 118.016 69.1882C118.743 70.7403 123.895 74.2161 121.557 84.6035C119.218 94.9908 115.717 106.891 110.036 113.683C110.036 113.683 107.697 116.615 105.2 112.767C102.716 108.894 90.3628 122.094 90.3628 122.094Z" fill="#FFA983"/>
<path d="M16.7044 322.359L15.0793 327.759L28.0273 328.024V321.736L16.7044 322.359Z" fill="#777371"/>
<path d="M74.7458 324.562V327.374L81.854 329.51L83.5848 327.838L84.3115 325.265L83.8755 322.16C83.8755 322.16 82.29 320.356 82.1051 320.356C81.9201 320.356 78.7095 321.033 78.6038 321.219C78.4981 321.404 74.7458 324.562 74.7458 324.562Z" fill="#777371"/>
<path d="M32.6253 177.188C32.6253 177.188 16.7706 319.043 15.9382 323.222C21.4477 324.057 28.622 323.222 28.622 323.222C28.622 323.222 49.4841 219.666 50.9903 202.911C56.6583 203.588 64.6781 203.083 64.6781 203.083C64.6781 203.083 73.6889 323.062 74.0192 324.575C74.3495 326.087 86.7029 323.739 86.7029 323.739C86.7029 323.739 86.5311 192.696 80.8631 175.609C75.1951 158.522 54.9936 171.47 54.9936 171.47L32.6253 177.188Z" fill="#353B45"/>
<path d="M47.74 63.4838C47.74 63.4838 29.441 74.7069 23.2709 79.4031C17.1008 84.0993 5.07769 109.902 2.91089 128.342C9.75482 130.186 24.2751 133.542 24.2751 133.542L28.4501 124.163C28.4501 124.163 31.119 175.609 31.2907 178.793C31.4625 181.977 64.3345 190.189 83.1884 177.122C82.5145 141.767 82.0257 112.608 82.0257 112.608L89.702 123.898C89.702 123.898 104.724 114.956 107.063 112.781C107.063 112.781 93.7053 87.6414 92.0405 84.4575C90.3758 81.2737 68.9852 68.7106 63.4889 65.8584C57.9926 63.0062 56.2486 69.7188 53.6987 69.0423C51.1487 68.3657 47.74 63.4838 47.74 63.4838Z" fill="#1C77D1"/>
<path d="M63.4757 52.7249V72.8364C63.4757 72.8364 61.6921 76.604 55.0596 76.9754C48.427 77.3601 47.74 72.3323 47.74 72.3323V55.1394L50.0257 54.7944L63.4757 52.7249Z" fill="#FFA983"/>
<path d="M63.4757 57.2354V61.3479C56.1694 62.7409 50.9902 61.2153 47.74 59.4641V55.1394L50.0257 54.7944C50.5542 54.8873 51.1752 55.0067 51.8754 55.1394C54.0158 55.5506 59.4328 56.2935 63.4757 57.2354Z" fill="#E89679"/>
<path d="M63.4759 61.3347C59.8293 61.2949 55.5485 61.202 51.7566 59.4509C51.7434 59.4509 51.7434 59.4376 51.7302 59.4376L51.717 59.4243C50.845 59.0264 50.0126 58.5355 49.2067 57.9518C45.3751 55.1128 42.4156 49.886 41.821 40.1884C41.8078 40.0823 41.7946 39.9629 41.7946 39.8568C41.5171 34.7891 41.1076 29.3898 41.7814 24.7201C42.5873 24.8926 44.5295 25.4497 45.8375 25.5559C51.6113 25.9539 67.2413 23.7251 72.4205 16.3226C74.4816 20.3157 75.8029 25.5957 76.0143 32.3216C75.0101 50.7483 80.6782 58.96 63.4759 61.3347Z" fill="#FFA983"/>
<path d="M51.7168 59.4243C51.0958 59.1988 50.8448 59.1722 49.2064 57.9518C45.3749 55.1128 42.4154 49.8859 41.8208 40.1884C42.7853 39.7771 44.0537 40.6925 44.0537 40.6925C44.0537 40.6925 43.3666 53.0566 51.7168 59.4243Z" fill="#E89679"/>
<path d="M55.8126 31.5388C55.8126 31.5388 52.8663 31.1674 49.114 33.3032C48.2949 32.4807 48.242 31.7909 49.484 30.849C50.7391 29.9071 52.6153 29.7214 54.1215 29.5887C55.6277 29.4693 55.9448 30.0398 55.8126 31.5388Z" fill="#070707"/>
<path d="M66.0652 28.9387C66.0652 28.9387 68.6284 27.4529 72.9224 27.9571C73.3584 26.8825 73.147 26.2192 71.6276 25.8477C70.1082 25.463 68.3113 26.0202 66.8712 26.4978C65.4311 26.9621 65.365 27.5989 66.0652 28.9387Z" fill="#070707"/>
<path d="M65.2463 40.4405C65.2463 40.4405 66.7525 42.112 67.0035 43.4519C65.9994 44.0356 64.5064 45.0571 62.5774 44.4999C62.5774 44.4999 65.352 43.7836 65.6294 43.107C65.9201 42.4569 65.6691 41.2763 65.2463 40.4405Z" fill="#D88971"/>
<path d="M54.1069 40.1622C55.1149 39.955 55.7433 38.8618 55.5106 37.7205C55.2778 36.5792 54.272 35.822 53.2641 36.0292C52.2561 36.2364 51.6276 37.3296 51.8604 38.4709C52.0931 39.6122 53.0989 40.3694 54.1069 40.1622Z" fill="#231F20"/>
<path d="M69.3029 36.8043C70.3109 36.5971 70.9394 35.5039 70.7066 34.3626C70.4739 33.2213 69.4681 32.4641 68.4601 32.6713C67.4521 32.8786 66.8237 33.9718 67.0564 35.1131C67.2892 36.2544 68.295 37.0116 69.3029 36.8043Z" fill="#231F20"/>
<path d="M71.1652 45.8928C71.1124 46.4765 71.0596 47.0204 71.0067 47.5246C70.8085 49.6869 70.5971 51.1993 69.7515 52.3534C69.0249 53.4015 67.7829 54.1576 65.6293 54.8607C63.3568 55.6036 61.56 54.7944 60.2123 53.5341C59.3271 52.7116 58.6401 51.6769 58.1644 50.7482C57.702 49.8859 57.4245 49.1032 57.3188 48.6522C57.3188 48.6522 57.3585 48.6522 57.4245 48.6654C58.4683 48.7981 66.6467 49.7267 71.1256 45.9194C71.1388 45.9194 71.152 45.9061 71.1652 45.8928Z" fill="#6F2928"/>
<path d="M71.1256 45.9194C71.086 46.3572 71.0464 46.7684 71.0067 47.1531C69.9101 48.5859 68.3379 49.7798 66.0786 50.3105C62.1942 51.2258 59.6971 50.934 58.1644 50.3768C57.8077 49.7268 57.5699 49.1165 57.4246 48.6655C58.4683 48.7981 66.6467 49.7268 71.1256 45.9194Z" fill="white"/>
<path d="M69.7516 52.3535C69.025 53.4015 67.783 54.1577 65.6294 54.8608C63.3569 55.6037 61.56 54.7944 60.2124 53.5342C63.489 51.1197 67.8755 51.8759 69.7516 52.3535Z" fill="#BE0A01"/>
<path d="M45.8505 25.5558C51.9017 25.9803 68.8001 23.5261 73.1205 15.2347C77.4409 6.94341 64.2419 -3.45725 46.7225 2.65844C29.2031 8.77413 30.9471 20.4616 30.4451 25.715C31.6077 23.0087 31.4492 23.022 32.1362 22.1729C31.7795 23.8445 31.2907 28.5407 31.3963 28.9121C31.502 29.2836 34.7258 21.1249 37.2362 20.7402C37.2362 20.7402 34.6069 25.2109 33.801 27.2008C35.8489 24.3088 39.8522 24.4945 41.6358 24.8129C41.649 24.8129 43.9215 25.3966 45.8505 25.5558Z" fill="#070707"/>
<path d="M41.9532 24.8925C41.7682 24.8527 41.6493 24.8262 41.6493 24.8262C39.8656 24.5078 35.8491 24.3221 33.8144 27.2141C34.6336 25.2242 37.2496 20.7535 37.2496 20.7535C35.5452 21.0055 33.5238 24.8527 32.3611 27.1743C33.0878 30.3847 34.1712 33.7543 34.8714 35.6381C36.7079 40.5864 41.4379 43.8896 42.4288 45.6806C43.4329 47.4848 44.7277 47.1929 45.8111 47.5246C44.2653 42.364 42.6402 30.2255 41.9664 24.8925C41.9532 24.8925 41.9532 24.8925 41.9532 24.8925Z" fill="#353434"/>
<path d="M44.8069 35.6381L39.6145 39.5914L40.3544 40.6793L45.0844 36.9117L44.8069 35.6381Z" fill="#231F20"/>
<path d="M43.4591 49.4615C43.4591 49.4615 43.4591 49.4615 43.4459 49.4615C43.3799 49.5013 43.3138 49.5278 43.2477 49.5543C41.3055 50.483 37.9364 49.2359 36.2056 46.2245C34.4088 43.0937 34.3823 40.5466 36.2849 39.4455C37.474 38.7557 39.469 39.4986 41.0413 40.4803C41.3452 40.666 41.6226 40.8517 41.8869 41.0507C42.1379 44.3673 42.6796 47.1399 43.4591 49.4615Z" fill="#FFA983"/>
<path opacity="0.36" d="M60.2123 33.6615C60.2123 33.6615 57.5963 31.2205 50.5674 33.6615C47.6475 34.7891 46.8548 36.5933 46.9737 37.4291C47.0926 38.2648 48.7706 42.4569 50.9374 43.3458C53.1042 44.2346 56.6847 43.7968 58.5344 41.7406C60.3841 39.6843 60.9126 37.4689 60.6219 35.333C60.318 33.1972 60.2123 33.6615 60.2123 33.6615Z" fill="white"/>
<path opacity="0.36" d="M63 32.5737C63 32.5737 63.2642 36.0759 64.7969 37.8138C66.3295 39.5517 70.5574 40.8517 73.1206 39.6047C75.6837 38.3577 76.4368 35.3065 76.4368 33.9666C76.4368 32.6267 76.3576 29.5888 75.0628 28.952C73.768 28.3152 69.3022 28.9918 67.0165 30.0398C64.7044 31.0613 63.1585 31.7777 63 32.5737Z" fill="white"/>
<path d="M69.0777 28.952C64.7441 29.9204 65.3783 31.1276 61.2032 32.1624C56.9886 33.0114 57.0546 31.645 52.721 32.6134C47.9118 33.688 44.8069 35.6381 44.8069 35.6381L45.0843 36.9249C46.6302 37.6413 47.3568 39.3924 47.3568 39.3924C47.3568 39.3924 49.3255 45.6806 55.2974 43.956C61.2825 42.2314 60.8201 37.3494 60.9126 36.0759C61.0183 34.8023 61.7317 34.5901 61.7317 34.5901C61.7317 34.5901 62.4716 34.4707 63.1058 35.585C63.74 36.6994 65.3783 41.316 71.522 40.3343C77.6657 39.3394 76.7937 32.8124 76.7937 32.8124C76.7937 32.8124 76.7012 30.9153 77.7978 29.6153L77.5203 28.3284C77.5203 28.3152 73.887 27.8774 69.0777 28.952ZM60.1859 36.8719C60.3973 39.1006 58.5872 42.2579 54.8482 43.1865C51.0959 44.1152 48.0042 40.8119 47.7532 37.5219C47.5022 34.2319 52.6814 33.4359 52.6814 33.4359C60.3709 32.1093 59.9877 34.6431 60.1859 36.8719ZM71.6145 39.4322C67.8226 40.1884 64.863 38.0923 64.1099 35.9963C63.3568 33.887 61.9299 31.7644 69.4609 29.6949C69.4609 29.6949 74.4815 28.1958 75.6442 31.2868C76.8069 34.3778 75.4064 38.6893 71.6145 39.4322Z" fill="#231F20"/>
<path d="M32.4139 340.216H11.8161C11.8161 340.216 11.6179 335.838 11.75 334.06C11.7632 333.808 11.7896 333.622 11.8161 333.49C12.0671 332.415 14.2603 325.013 18.0126 324.694C18.0126 324.694 18.0126 319.043 22.0159 319.096C26.0192 319.162 26.5213 322.121 26.5873 324.694C26.5873 324.694 31.7797 328.276 32.4139 332.919C32.4139 332.986 32.4271 333.039 32.4271 333.105C32.7046 337.098 32.4139 340.216 32.4139 340.216Z" fill="#47362C"/>
<path d="M22.1214 331.526C24.3279 331.513 26.2569 331.672 27.9216 331.951C28.1859 330.677 28.0405 328.86 26.9835 328.303C25.3584 327.427 20.4699 327.798 18.9769 328.303C17.8275 328.687 17.6029 330.889 17.5632 331.898C18.858 331.672 20.3378 331.539 22.1214 331.526Z" fill="#352218"/>
<path d="M111.595 340.481C111.053 340.481 103.192 340.534 94.4585 340.494C87.0332 340.481 78.9738 340.401 74.257 340.189C73.6757 336.713 74.508 326.91 74.508 326.91C76.6352 328.037 78.1414 327.454 81.3916 327.798C80.9688 325.862 80.3082 318.247 86.4387 319.627C92.0407 320.887 88.9754 325.862 89.3586 326.989C89.385 327.095 89.4643 327.175 89.57 327.201C90.8251 327.586 91.3668 328.289 91.3668 328.289H91.5122L93.0844 328.342H93.1241C96.11 326.777 96.6385 327.798 97.6691 328.196C97.854 328.276 98.0522 328.329 98.29 328.342C98.3297 328.342 98.3825 328.329 98.4222 328.329C114.25 326.777 112.599 340.481 111.595 340.481Z" fill="#47362C"/>
<path d="M97.6689 328.196C96.4534 329.483 94.0884 332.19 93.4146 334.591C93.19 335.029 90.4418 335.108 90.0983 334.697C89.9001 334.458 91.261 331.301 93.0843 328.342H93.1239C96.1099 326.777 96.6383 327.799 97.6689 328.196Z" fill="#352218"/>
<path d="M91.5123 328.289C89.4511 331.035 88.0903 334.352 87.76 334.458C87.3108 334.577 85.9367 334.909 84.7344 334.458C85.9763 330.425 87.9978 328.13 89.3587 326.989C89.3851 327.095 89.4644 327.175 89.5701 327.201C90.8252 327.586 91.3669 328.289 91.3669 328.289H91.5123Z" fill="#352218"/>
<path d="M43.4593 49.4615C43.4593 49.4615 43.4593 49.4615 43.4461 49.4615C43.3801 49.5013 43.314 49.5278 43.2479 49.5543C41.9003 46.5429 41.2793 42.4304 41.0415 40.4803C41.3454 40.666 41.6228 40.8517 41.8871 41.0507C42.1381 44.3673 42.6798 47.1399 43.4593 49.4615Z" fill="#D88971"/>
</g>
<defs>
<clipPath id="clip0">
<rect width="144" height="387" fill="white" transform="translate(0.744141 0.814514)"/>
</clipPath>
</defs>
</svg>
